<?xml version="1.0" encoding="utf-8"?>
<svg viewBox="56.769 183.952 35.48 34.389" xmlns="http://www.w3.org/2000/svg">
  <path fill-rule="evenodd" clip-rule="evenodd" d="M0 16C0 24.7869 7.16711 32 16.0438 32C24.9205 32 32.0876 24.7869 32.0876 16C32.0876 7.21312 24.9205 0 16.0438 0C7.23286 0 0 7.21312 0 16ZM29.3921 11.2791H30.1154C30.5757 12.7217 30.9044 14.2955 30.8387 16.0004C30.8387 17.7053 30.5757 19.3446 30.0496 20.8528H29.3921C26.0193 20.9355 23.1231 21.7022 20.4786 22.4022C16.8335 23.3671 13.6666 24.2053 10.3894 22.9512C6.97022 21.6397 5.52365 18.8856 5.52365 16.066C5.52365 13.2463 7.03597 10.4266 10.3894 9.1807C13.6666 7.92659 16.8335 8.76485 20.4786 9.72973C23.1231 10.4297 26.0193 11.1964 29.3921 11.2791ZM8.08776 28.2622C7.99149 28.2622 7.93046 28.227 7.85308 28.1825L7.85304 28.1825C7.82472 28.1662 7.79422 28.1486 7.759 28.131C10.1261 29.7704 13.0193 30.6884 16.1097 30.6884C21.3042 30.6884 25.9069 27.9999 28.537 23.9343C26.2333 24.602 24.2597 25.4519 22.3903 26.257C18.0171 28.1403 14.2141 29.7781 8.08776 28.2622ZM16.0448 1.18072C21.3709 1.18072 25.9736 4.0004 28.6037 8.13155C26.2631 7.47318 24.2573 6.60845 22.3511 5.78665C17.9918 3.90731 14.1532 2.25248 8.02295 3.80368C7.92432 3.83646 7.80925 3.86925 7.69418 3.90204C7.57911 3.93482 7.46404 3.96761 7.36541 4.0004C9.79828 2.22991 12.8229 1.18072 16.0448 1.18072Z" fill="#FF5100" transform="matrix(1, 0, 0, 1, 58.395753, 185.419212)"/>
</svg>